<svg viewBox="0 0 512 512" xmlns="http://www.w3.org/2000/svg" fill-rule="evenodd" clip-rule="evenodd" stroke-linejoin="round" stroke-miterlimit="2"><g fill-rule="nonzero"><path d="M256.012 500.255c-43.552 0-83.53-14.575-109.269-36.349-13.072 3.908-29.794 10.19-40.343 17.986-9.032 6.665-7.907 13.46-6.277 16.205 7.144 12.057 122.566 7.7 155.889 3.944v-1.786zM256.012 500.255c43.557 0 83.53-14.575 109.274-36.349 13.068 3.908 29.79 10.19 40.343 17.986 9.027 6.665 7.902 13.46 6.273 16.205-7.145 12.057-122.567 7.7-155.89 3.944v-1.786z" fill="#faab07"/><path d="M256.266 239.23c71.923-.49 129.563-14.41 149.096-19.75 4.653-1.273 7.144-3.557 7.144-3.557.018-.656.297-11.708.297-17.41 0-96.02-45.329-192.508-156.805-192.513-111.472.005-156.8 96.493-156.8 192.512 0 5.703.277 16.755.297 17.411 0 0 2.025 2.136 5.736 3.17 18.033 5.019 76.76 19.634 150.503 20.136h.532zM451.709 319.222c-4.458-14.347-10.544-31.078-16.707-47.148 0 0-3.543-.437-5.339.08-55.298 16.067-122.322 26.304-173.397 25.686h-.532c-50.792.608-117.36-9.51-172.472-25.417-2.107-.608-6.264-.35-6.264-.35-6.162 16.07-12.249 32.802-16.707 47.149-21.26 68.417-14.37 96.732-9.127 97.368 11.254 1.361 43.805-51.504 43.805-51.504 0 53.717 48.499 136.2 159.56 136.955.492-.004 2.45-.004 2.944 0 111.06-.756 159.558-83.238 159.558-136.955 0 0 32.552 52.865 43.805 51.504 5.244-.636 12.134-28.95-9.127-97.368"/><path d="M216.334 147.86c-15.122.684-28.041-16.544-28.855-38.443-.82-21.912 10.764-40.228 25.886-40.913 15.109-.676 28.023 16.544 28.842 38.451.829 21.913-10.76 40.23-25.873 40.905M324.516 109.417c-.809 21.899-13.728 39.127-28.85 38.443-15.113-.68-26.7-18.992-25.872-40.905.819-21.907 13.733-39.127 28.84-38.451 15.123.685 26.706 19 25.882 40.913" fill="#fff"/><path d="M351.394 178.788c-4.041-8.95-44.739-18.923-95.124-18.923h-.54c-50.386 0-91.083 9.973-95.125 18.923a3.009 3.009 0 00-.296 1.274c0 .647.22 1.226.555 1.723 3.41 4.962 48.6 29.493 94.866 29.493h.54c46.268 0 91.457-24.527 94.86-29.493.342-.492.556-1.08.556-1.728 0-.455-.109-.88-.292-1.269" fill="#faab07"/><path d="M234.923 109.738c.69 8.653-4.055 16.338-10.586 17.177-6.542.842-12.399-5.488-13.093-14.145-.685-8.659 4.057-16.344 10.573-17.177 6.556-.847 12.422 5.492 13.106 14.145M276.469 112.63c1.336-2.394 10.44-14.983 29.282-10.4 4.951 1.206 7.24 2.978 7.723 3.672.714 1.03.91 2.495.187 4.469-1.432 3.911-4.39 3.806-6.029 3.04-1.057-.493-14.183-9.242-26.275 3.81-.832.897-2.321 1.203-3.73.14-1.412-1.067-1.992-3.227-1.158-4.731"/><path d="M256.266 294.69h-.532c-34.736.421-76.85-4.18-117.64-12.22-3.49 20.216-5.596 45.63-3.787 75.936 4.574 76.597 50.064 124.745 120.278 125.445h2.855c70.218-.7 115.704-48.848 120.282-125.445 1.81-30.312-.301-55.72-3.793-75.942-40.793 8.045-82.918 12.647-117.663 12.226" fill="#fff"/><path d="M157.321 288.282v75.382s34.53 6.962 69.126 2.14v-69.53c-21.917-1.24-45.553-4.003-69.126-7.992" fill="#eb1923"/><path d="M412.506 215.923s-67.169 21.204-156.24 21.807h-.532c-88.927-.598-156.01-21.734-156.24-21.807l-22.496 56.15c56.27 16.967 126.005 27.899 178.736 27.261h.532c52.73.638 122.461-10.294 178.736-27.26l-22.496-56.15z" fill="#eb1923"/></g></svg>