<!-- java.svg -->
<svg xmlns="http://www.w3.org/2000/svg" viewBox="0 0 256 310" width="100" height="100">
  <defs>
    <linearGradient id="javaGradient" x1="0%" y1="0%" x2="0%" y2="100%">
      <stop offset="0%" stop-color="#5382A1"/>
      <stop offset="100%" stop-color="#2F5B77"/>
    </linearGradient>
  </defs>
  <path fill="#5382A1" d="M99.1 236.2c-14.4 6.4-30.5 11-48.7 13.6-4.4.7-6.8 4.4-5.7 7.9 1.1 3.6 5.3 5.4 9.9 4.7 20.7-3.1 39.6-9.2 56.2-17.6 3.7-1.9 5.6-5.6 4.3-8.9-1.3-3.3-5.6-4.4-10.1-2.7z"/>
  <path fill="#E76F00" d="M127.9 0c-5.2 17.6-13.5 32.7-27.2 45.2-9.9 9-23.5 16.4-40.3 22.1 5.3 6.1 8.3 11.2 11.1 17.8 28.5-9.5 51.3-27.1 62.5-49.8 3.9-7.8 5.7-14.2 5.9-22.3 0-.7-1.2-1.1-1.8-.9-.6.2-.9.9-.2 1.3z"/>
  <path fill="#5382A1" d="M195.8 252.5c-16.3-1.2-31.2-5.7-45-13.1-4-2.1-8.3-.4-9.7 3.6-1.4 4.1.7 8.7 4.8 10.7 15.6 7.8 33.2 12.5 52.5 13.7 5.1.3 9.4-2.3 9.6-6.1.2-3.9-3.5-6.9-12.2-7.8z"/>
  <path fill="#E76F00" d="M116.2 92.2c-8.1 10.5-14.3 19.6-16.2 31.4-1.9 11.4 2.4 23.4 13.1 34.3 4.2 4.3 6.9 7.4 9.9 11.6 5.2-5.6 8.2-10.4 10.5-16.6 4.9-12.3 2.9-26.7-6.2-38.3-4.6-5.8-7.6-9.4-11.1-14.1z"/>
  <path fill="#5382A1" d="M87.1 263.4c-13.2 5.6-27.5 9.8-43.9 12.3-5.4.8-8.3 4.5-7.2 8.2 1.1 3.7 5.4 5.5 10.1 4.7 20.8-3.2 39.6-9.4 56.1-18.2 3.7-2 5.3-5.6 4-9.1-1.3-3.5-5.4-4.8-10.1-3.1z"/>
</svg>
