<!-- javascript.svg -->
<svg xmlns="http://www.w3.org/2000/svg" viewBox="0 0 128 128" width="100" height="100">
  <path fill="#f7df1e" d="M1.408 1.408h125.184v125.185H1.408z"/>
  <path d="M116.032 97.197c-1.624-10.3-8.253-15.403-20.913-18.31-5.126-1.154-10.873-2.167-12.61-5.3-0.605-2.3-0.683-7.167 5.586-8.02 6.387-1.003 12.926 2.3 14.903 9.67l9.024-5.896c-2.38-9.354-9.827-15.477-19.844-15.12-11.556 0-18.4 6.33-19.415 14.833-1.503 10.667 4.015 16.713 14.427 19.783 6.634 1.99 13.407 2.837 14.495 7.29 0.982 3.76-2.31 7.406-9.02 7.387-7.312-.02-12.37-3.7-14.8-10.317l-9.42 5.643c2.336 9.417 10.6 15.777 22.72 15.777 10.947 0 20.44-5.26 21.697-16.423zm-44.252-4.462V63.58h-10.89v30.132c0 6.422-2.682 9.867-8.004 9.867-5.066 0-7.78-3.54-8.923-7.73l-9.367 5.79c2.423 8.03 9.66 13.217 18.253 13.217 10.668 0 18.93-5.934 18.93-20.01z"/>
</svg>
