<!-- mongodb.svg -->
<svg xmlns="http://www.w3.org/2000/svg" viewBox="0 0 256 590" width="100" height="100">
  <path fill="#499D4A" d="M130.8 0S123.7 10.8 120.5 17.7c-3.3 6.9-6.6 14.8-8.3 21.6-2.7 10.1-2.4 19.5-2 24.3 0.5 4.8 1.1 12.8 1.1 12.8s-1.1 0.2-3.3-2.4c-2.2-2.6-11.2-14.6-13.1-22.8C91.7 42 90 29.3 91.2 22.6c0 0-6.5 8.1-10.4 20.5-3.9 12.4-2.8 24.2-2.2 30.1 0.7 5.9 4.2 18.9 6.8 25.3 3.1 7.5 10.7 17.5 15.1 23.2 4.4 5.7 10.2 11.9 12.9 13.9 0 0-0.1 92.9 0 106.4 0.1 13.5 0.7 66.1 6.8 90.5 0.4 1.6 0.7 2.9 0.9 4 0.4 2 1.2 6.5 2.2 6.5 1 0 1.8-4.5 2.2-6.5 0.2-1 0.5-2.4 0.9-4 6.1-24.4 6.7-77 6.8-90.5 0.1-13.5 0-106.4 0-106.4 2.7-2 8.5-8.2 12.9-13.9 4.4-5.7 12-15.7 15.1-23.2 2.6-6.4 6.1-19.4 6.8-25.3 0.7-5.9 1.7-17.7-2.2-30.1-3.9-12.4-10.4-20.5-10.4-20.5 1.2 6.7-0.5 19.4-5.4 30.6-1.9 4.2-10.9 16.2-13.1 18.8-2.2 2.6-3.3 2.4-3.3 2.4s0.6-8 1.1-12.8c0.5-4.8 0.8-14.2-2-24.3-1.8-6.8-5.1-14.7-8.3-21.6C132.3 10.8 125.2 0 125.2 0h5.6z"/>
</svg>
