<!-- mysql.svg -->
<svg xmlns="http://www.w3.org/2000/svg" viewBox="0 0 400 120" width="200" height="60">
  <g fill="none" fill-rule="evenodd">
    <path fill="#00758F" d="M104.1 20.7c-2.4 7.7-3.9 15.5-4.2 23.6-.4 9.8 1.4 19.7 5.3 29.2 1.4 3.5 3.6 7.1 6.3 10.5l-8.8 2.5c-5.5-6.7-9.5-13.6-11.9-20.9-3.2-9.7-3.9-20.6-2.2-31.2C91.1 20.5 99.1 12 104.1 9.5c3.4-1.6 6.9-1.4 8.8.3.6.5 1.1 1.3 1.4 2.2l.3.8c.4 1.2.7 2.5.9 3.9.1.6.1 1.3.2 2z"/>
    <path fill="#F29111" d="M122.8 41.5c2.5 4.8 5.5 8.5 8.8 11 3.2 2.5 6.7 3.7 10.5 3.6 3.1 0 5.5-.7 7.2-2.2.9-.8 1.4-1.7 1.5-2.7 0-1.1-.6-2.2-1.6-3.2-1.6-1.5-4.1-2.7-7.2-3.5-1.4-.3-3.4-.7-5.9-1.2l-4.1-.8c-2.6-.5-4.5-1-5.6-1.3l-3.6-1.1z"/>
    <text fill="#00758F" font-family="Arial, sans-serif" font-size="30" font-weight="bold">
      <tspan x="150" y="80">MySQL</tspan>
    </text>
  </g>
</svg>
