<!-- nodejs.svg -->
<svg xmlns="http://www.w3.org/2000/svg" viewBox="0 0 256 288" width="100" height="100">
  <path fill="#539E43" d="M128 .006 9.453 72.004v143.992L128 287.994 246.547 216V72.004z"/>
  <path fill="#FFF" d="M128 22.27 233.37 86.084v115.832L128 265.73 22.63 201.916V86.084z"/>
  <path fill="#8CC84B" d="M128 0 0 72v144l128 72 128-72V72L128 0zm.07 22.27 105.3 63.814v115.832l-105.3 63.814-105.3-63.814V86.084L128.07 22.27z"/>
  <path fill="#539E43" d="M134.84 212.78c5.46 8.85 12.55 15.1 25.1 15.1 10.54 0 17.33-5.26 17.33-12.55 0-8.7-6.91-11.79-18.54-16.9l-6.36-2.74c-18.39-7.83-30.6-17.65-30.6-38.4 0-19.1 14.56-33.7 37.3-33.7 16.17 0 27.78 5.64 36.17 20.36l-19.76 12.67c-4.35-7.83-9.06-10.92-16.41-10.92-7.47 0-12.23 4.76-12.23 10.92 0 7.64 4.76 10.73 15.78 15.42l6.36 2.73c21.63 9.25 33.84 18.59 33.84 39.66 0 22.72-17.84 35.2-41.8 35.2-23.45 0-38.55-11.22-45.92-25.89l20.02-11.55zm-65.6 2.3c3.72 6.57 7.11 12.11 15.23 12.11 7.78 0 12.7-3.04 12.7-14.86V128h23.73v84.2c0 24.57-14.38 35.72-35.37 35.72-18.94 0-29.94-9.81-35.52-21.92l19.23-10.23z"/>
</svg>
