<!-- postgresql.svg -->
<svg xmlns="http://www.w3.org/2000/svg" viewBox="0 0 512 512" width="100" height="100">
  <path fill="#336791" d="M255.8 0C114.7 0 0 114.6 0 255.7s114.6 255.7 255.7 255.7 255.7-114.6 255.7-255.7S396.8 0 255.8 0zm104.5 343.5c-8.3 8.3-22.1 8.3-30.4 0l-31.5-31.5c-8.3-8.3-8.3-22.1 0-30.4l31.5-31.5c8.3-8.3 22.1-8.3 30.4 0l31.5 31.5c8.3 8.3 8.3 22.1 0 30.4l-31.5 31.5zM172.7 343.5c-8.3 8.3-22.1 8.3-30.4 0l-31.5-31.5c-8.3-8.3-8.3-22.1 0-30.4l31.5-31.5c8.3-8.3 22.1-8.3 30.4 0l31.5 31.5c8.3 8.3 8.3 22.1 0 30.4l-31.5 31.5zM261.6 146.3c-60.6 0-110 49.4-110 110 0 60.6 49.4 110 110 110s110-49.4 110-110c0-60.6-49.4-110-110-110z"/>
</svg>
