<!-- typescript.svg -->
<svg xmlns="http://www.w3.org/2000/svg" viewBox="0 0 128 128" width="100" height="100">
  <path fill="#007acc" d="M1.408 1.408h125.184v125.185H1.408z"/>
  <path fill="#fff" d="M89.92 98.57c1.56 3.04 3.21 5.4 6.84 8.95 2.59 2.54 5.3 4.89 5.3 5.31 0 .17-3.13 2.23-6.98 4.56-8.38 4.87-12.98 6.37-21.08 6.65-8.46.31-13.91-1.02-21.23-4.88-10.52-5.47-17.39-15.8-19.56-29.72-.43-2.79-.52-9.68-.21-12.85.84-8.32 3.2-15.43 7.01-20.93 1.27-1.82 4.78-5.55 6.45-6.6 5.61-3.62 10.17-5.01 17.19-5.24 6.86-.23 12.22 1.02 18.17 4.08 3.1 1.6 7.79 4.79 7.79 5.3 0 .17-1.68 2.01-3.74 4.09l-3.75 3.78-.72-.46c-1.06-.65-3.12-1.86-4.55-2.6-2.34-1.18-6.71-2.51-8.88-2.68-5.64-.46-9.77.85-13.78 4.31-3.95 3.42-6.3 8.49-7.09 14.51-.3 2.2-.37 7.26-.14 9.52.87 8.75 4.06 15.26 9.25 19.27 2.93 2.28 6.12 3.35 10.1 3.42 4.02.07 6.53-.44 10.08-2.1 1.57-.72 3.19-1.62 3.6-2.01.62-.6.41-1.19-1.41-3.35-1.21-1.49-2.21-2.86-2.21-3.04 0-.23 5.71-4.06 8.53-5.8l.57-.33zM59.13 64.61v5.13H37.27v40.92h-9.37V69.74H6.08v-5.13h53.05z"/>
</svg>
